<?xml version="1.0" encoding="UTF-8" standalone="no"?>
<!-- Created with Inkscape (http://www.inkscape.org/) -->

<svg
   xmlns:dc="http://purl.org/dc/elements/1.1/"
   xmlns:cc="http://creativecommons.org/ns#"
   xmlns:rdf="http://www.w3.org/1999/02/22-rdf-syntax-ns#"
   xmlns:svg="http://www.w3.org/2000/svg"
   xmlns="http://www.w3.org/2000/svg"
   xmlns:sodipodi="http://sodipodi.sourceforge.net/DTD/sodipodi-0.dtd"
   xmlns:inkscape="http://www.inkscape.org/namespaces/inkscape"
   width="200.38022mm"
   height="175.20879mm"
   viewBox="0 0 200.38022 175.20879"
   version="1.1"
   id="svg8"
   inkscape:version="0.92.4 (5da689c313, 2019-01-14)"
   sodipodi:docname="Логотип для сайта.svg">
  <defs
     id="defs2">
    <filter
       inkscape:collect="always"
       style="color-interpolation-filters:sRGB"
       id="filter1155"
       x="-0.033675101"
       width="1.0673501"
       y="-0.038663499"
       height="1.077327">
      <feGaussianBlur
         inkscape:collect="always"
         stdDeviation="2.8795226"
         id="feGaussianBlur1157" />
    </filter>
  </defs>
  <sodipodi:namedview
     id="base"
     pagecolor="#ffffff"
     bordercolor="#666666"
     borderopacity="1.0"
     inkscape:pageopacity="0.0"
     inkscape:pageshadow="2"
     inkscape:zoom="0.24748737"
     inkscape:cx="-102.18927"
     inkscape:cy="547.16132"
     inkscape:document-units="mm"
     inkscape:current-layer="layer1"
     showgrid="false"
     inkscape:window-width="1366"
     inkscape:window-height="705"
     inkscape:window-x="-8"
     inkscape:window-y="-8"
     inkscape:window-maximized="1"
     inkscape:snap-global="false"
     inkscape:snap-bbox="true"
     inkscape:bbox-paths="true"
     inkscape:bbox-nodes="true"
     inkscape:snap-bbox-midpoints="true"
     inkscape:snap-bbox-edge-midpoints="true"
     fit-margin-top="0"
     fit-margin-left="0"
     fit-margin-right="0"
     fit-margin-bottom="0" />
  <metadata
     id="metadata5">
    <rdf:RDF>
      <cc:Work
         rdf:about="">
        <dc:format>image/svg+xml</dc:format>
        <dc:type
           rdf:resource="http://purl.org/dc/dcmitype/StillImage" />
        <dc:title></dc:title>
      </cc:Work>
    </rdf:RDF>
  </metadata>
  <g
     inkscape:label="Layer 1"
     inkscape:groupmode="layer"
     id="layer1"
     transform="translate(-5.3055536,-105.66996)">
    <g
       id="g869"
       transform="matrix(1.0265755,0,0,1.0265755,-2.3620238,-14.448859)">
      <g
         id="g1105"
         transform="matrix(0.89111585,0,0,0.88631246,-1325.6044,901.98909)"
         style="opacity:0.85799997;fill:#000000;filter:url(#filter1155)">
        <g
           transform="translate(-47.170052,-264.83793)"
           id="g1117">
          <circle
             style="opacity:1;fill:#000000;fill-opacity:1;stroke:#000000;stroke-width:2.96691513;stroke-miterlimit:4;stroke-dasharray:none;stroke-opacity:1"
             id="circle1083"
             cx="-524.54883"
             cy="-1652.6331"
             r="89.371819"
             transform="rotate(90)" />
          <g
             id="g1110">
            <path
               style="fill:#000000;stroke:#000000;stroke-width:0.29477927px;stroke-linecap:butt;stroke-linejoin:miter;stroke-opacity:1"
               d="m 1676.2835,-539.95103 h 78.9787 l -11.0141,13.01426 10.9607,13.03094 h -78.9253 z"
               id="path1093"
               inkscape:connector-curvature="0"
               sodipodi:nodetypes="cccccc" />
            <path
               sodipodi:nodetypes="cccccc"
               inkscape:connector-curvature="0"
               id="path1097"
               d="m 1629.0196,-539.95085 -78.9789,-1e-5 11.0142,13.01426 -10.9608,13.03094 h 78.9255 z"
               style="fill:#000000;stroke:#000000;stroke-width:0.29477927px;stroke-linecap:butt;stroke-linejoin:miter;stroke-opacity:1" />
            <circle
               transform="rotate(90)"
               r="59.132587"
               cy="-1651.6884"
               cx="-523.60388"
               id="circle1095"
               style="opacity:1;fill:#000000;fill-opacity:1;stroke:#000000;stroke-width:0.59132588;stroke-miterlimit:4;stroke-dasharray:none;stroke-opacity:1" />
          </g>
        </g>
      </g>
      <g
         style="fill:#ffffff"
         transform="matrix(0.86145483,0,0,0.86145483,-1318.5428,652.38058)"
         id="g874">
        <circle
           style="opacity:1;fill:#1a1a1a;fill-opacity:1;stroke:#ffffff;stroke-width:2.96691513;stroke-miterlimit:4;stroke-dasharray:none;stroke-opacity:1"
           id="circle848"
           cx="-524.54883"
           cy="-1652.6331"
           r="89.371819"
           transform="rotate(90)" />
        <path
           style="font-style:normal;font-variant:normal;font-weight:bold;font-stretch:normal;font-size:19.25736809px;line-height:1.25;font-family:Cambria;-inkscape-font-specification:'Cambria, Bold';font-variant-ligatures:normal;font-variant-caps:normal;font-variant-numeric:normal;font-feature-settings:normal;text-align:center;letter-spacing:0px;word-spacing:0px;writing-mode:lr-tb;text-anchor:middle;fill:#ffffff;fill-opacity:1;stroke:none;stroke-width:1.42315912"
           d="m 192.96875,492.24609 -2.1875,1.72852 c 0.35432,0.88233 0.53039,1.70611 0.52539,2.47266 -0.005,0.76654 -0.22159,1.62532 -0.64648,2.57812 -0.42489,0.9528 -1.36002,2.40076 -2.80664,4.3418 l -29.625,39.78515 6.22265,8.70508 37.79297,-15.23828 -25.49414,32.4375 5.92383,8.28711 45.6582,-15.62109 c 2.42009,-0.82124 4.20606,-1.32274 5.35547,-1.50391 1.14941,-0.18117 2.15102,-0.15526 3.00781,0.0762 0.87889,0.21399 1.71505,0.6811 2.50586,1.40039 l 2.1875,-1.72851 -10.38086,-14.51758 -2.1875,1.72656 c 0.75802,1.25358 1.06715,2.38791 0.92969,3.4043 -0.0988,1.02215 -0.72218,1.98746 -1.87109,2.89453 -0.72912,0.57564 -1.696,1.15641 -2.90039,1.74414 -1.18231,0.57028 -2.3978,1.09483 -3.64649,1.57227 l -27.68945,10.36718 27.98047,-34.83593 -5.62696,-7.86915 -40.94921,16.69532 18.72656,-24.20703 c 1.99329,-2.62683 3.57509,-4.40362 4.74609,-5.32813 0.92797,-0.73263 1.85427,-1.00917 2.77735,-0.83008 0.92307,0.1791 1.88139,0.81952 2.87695,1.92188 l 2.1875,-1.72656 z m 405.87891,9.1211 c -1.28181,0.0417 -2.54867,0.3095 -3.80078,0.80273 -4.0297,1.56215 -7.99683,5.39171 -11.89844,11.48828 l -13.43946,21 2.27149,1.60352 c 0.81531,-0.7537 1.53236,-1.27681 2.1543,-1.57227 0.61442,-0.33575 1.22898,-0.46191 1.84179,-0.3789 0.62823,0.0589 1.32525,0.3228 2.08985,0.79297 0.78001,0.44606 1.70746,1.0492 2.78515,1.81054 L 610.5,557.85938 c 1.10062,0.77754 1.99416,1.46208 2.68164,2.05273 0.66456,0.57445 1.15296,1.16429 1.46484,1.76953 0.30438,0.56495 0.42545,1.20907 0.36133,1.93359 -0.0716,0.68423 -0.27784,1.55384 -0.61914,2.60743 l 2.26953,1.60351 12.44532,-19.44726 -2.26954,-1.60352 c -0.8774,0.95478 -1.61358,1.60899 -2.20507,1.96094 -0.57608,0.32785 -1.13948,0.50712 -1.69141,0.53711 -0.55944,-0.0103 -1.1866,-0.17531 -1.88281,-0.49219 -0.71914,-0.33308 -1.83625,-1.0344 -3.34961,-2.10352 l -11.00586,-7.77539 c 1.04784,-1.42922 2.32053,-3.31101 3.8164,-5.64843 2.5908,-4.04832 4.17515,-7.82712 4.75586,-11.33594 0.55779,-3.52502 0.16928,-6.79353 -1.16796,-9.80274 -1.33725,-3.0092 -3.53044,-5.5897 -6.58008,-7.74414 -2.96366,-2.09369 -5.85582,-3.09564 -8.67578,-3.0039 z m -5.21875,11.69922 c 0.43779,0.005 0.8882,0.0504 1.35156,0.13281 1.84593,0.28931 3.96102,1.27627 6.3457,2.96094 2.40762,1.70087 4.0998,3.40233 5.07422,5.10546 0.98984,1.67905 1.36209,3.46398 1.11719,5.35547 -0.26783,1.8753 -1.1727,4.01802 -2.71485,6.42774 l -1.99023,3.10937 -19.36328,-13.68164 c 0.54015,-0.94809 1.35019,-2.26437 2.42969,-3.95117 1.32624,-2.07235 2.70994,-3.56067 4.15429,-4.46484 1.08326,-0.67813 2.28233,-1.01001 3.59571,-0.99414 z m -34.6543,40.88867 c -5.46442,-0.0758 -10.92693,2.37831 -16.38477,7.36133 -4.00537,3.6569 -6.70594,7.71712 -8.10156,12.18359 -1.39562,4.46647 -1.39355,9.13969 0.004,14.01758 1.40019,4.83692 4.13941,9.72126 8.21679,14.65234 6.21574,7.51715 12.41412,11.7588 18.59766,12.72852 6.20441,0.95067 12.37459,-1.37302 18.50781,-6.97266 2.94145,-2.68554 5.22808,-5.56297 6.86328,-8.63281 1.65607,-3.08889 2.55151,-6.36745 2.68555,-9.83594 0.13404,-3.46849 -0.56326,-7.10175 -2.0918,-10.89844 -1.52579,-3.83765 -4.00078,-7.82664 -7.42578,-11.96875 -6.12513,-7.40757 -12.30129,-11.5566 -18.52929,-12.44726 -0.78077,-0.11407 -1.56117,-0.17667 -2.3418,-0.1875 z m -7.49023,9.03906 c 0.31277,0.005 0.62863,0.0254 0.94921,0.0644 2.5674,0.27132 5.39906,1.59078 8.49219,3.95899 3.09587,2.32724 6.44652,5.67194 10.05274,10.0332 2.21084,2.67374 4.08364,5.27185 5.61914,7.79297 1.55635,2.50207 2.65875,4.89818 3.30859,7.18945 0.65258,2.25031 0.79704,4.34986 0.43164,6.29883 -0.38352,1.92706 -1.37805,3.62327 -2.98437,5.08985 -3.10834,2.83791 -6.7566,3.34101 -10.94336,1.50976 -4.18403,-1.87221 -9.01163,-6.11577 -14.48438,-12.73437 -5.23717,-6.3337 -8.37747,-11.67947 -9.41797,-16.03711 -1.03776,-4.39861 -0.0444,-7.98046 2.98047,-10.74219 1.80711,-1.6499 3.80664,-2.45668 5.9961,-2.42383 z m -298.00977,8.57031 c -3.87176,0.0258 -7.62881,1.17876 -11.27344,3.46094 -4.1268,2.60106 -7.97379,6.57859 -11.53906,11.93164 -5.43507,8.16043 -7.85046,15.50996 -7.24805,22.04883 0.62506,6.55552 4.26419,12.28031 10.91992,17.17383 3.19204,2.34689 6.4043,3.9803 9.63477,4.90234 3.25311,0.93869 6.49749,1.05655 9.73242,0.35156 3.23494,-0.70499 6.41943,-2.29787 9.55469,-4.77734 3.17375,-2.48662 6.25712,-5.97804 9.25195,-10.47461 5.35584,-8.04148 7.69204,-15.34514 7.00586,-21.91016 -0.67033,-6.5888 -4.39122,-12.37091 -11.16015,-17.34765 -4.34661,-3.19577 -8.75094,-4.96382 -13.2129,-5.30274 -0.55774,-0.0424 -1.1129,-0.0603 -1.66601,-0.0566 z m 6.00391,7.39063 c 2.01329,-0.0785 3.9426,0.56234 5.78906,1.91992 2.24122,1.64782 3.52845,3.81565 3.86133,6.50586 0.37136,2.68307 -0.16224,5.88937 -1.59961,9.61719 -1.39889,3.72067 -3.67484,7.94911 -6.82813,12.68359 -1.93317,2.90255 -3.87815,5.44209 -5.83398,7.61914 -1.9332,2.19369 -3.8778,3.89875 -5.83594,5.11719 -1.91965,1.21129 -3.82294,1.86832 -5.71094,1.96875 -1.87215,0.0766 -3.68066,-0.52696 -5.42383,-1.8086 -3.37314,-2.48004 -4.72162,-6.07667 -4.04492,-10.78906 0.71518,-4.71953 3.46656,-10.67048 8.25196,-17.85547 4.57939,-6.8757 8.75398,-11.3741 12.52539,-13.49218 1.66682,-0.92979 3.28371,-1.42528 4.84961,-1.48633 z m 254.72656,7.24609 -19.63086,9.56836 1.15234,2.60742 c 1.52811,-0.26475 2.64072,-0.26242 3.33789,0.006 0.71062,0.22972 1.31533,0.70306 1.81446,1.41992 0.51256,0.67831 1.21036,2.01775 2.09375,4.01954 l 5.82226,13.19531 -16.99609,8.28515 -5.82422,-13.19531 c -0.89501,-2.02813 -1.41035,-3.47434 -1.54688,-4.33594 -0.14814,-0.88793 -0.0894,-1.68435 0.17774,-2.39062 0.29217,-0.71849 1.01558,-1.59986 2.16992,-2.64258 l -1.15039,-2.60742 -19.74219,9.62305 1.15039,2.60742 c 1.06888,-0.20094 1.94158,-0.25768 2.61914,-0.17188 0.69102,0.0473 1.27856,0.27314 1.76172,0.67774 0.50824,0.39237 0.9744,0.99798 1.39649,1.8164 0.44716,0.8062 0.94393,1.82846 1.49023,3.06641 l 15.0293,34.05664 c 0.55792,1.26429 0.98451,2.33533 1.28125,3.21484 0.28512,0.85318 0.41253,1.62301 0.38086,2.31055 -0.0182,0.64898 -0.23444,1.26667 -0.64649,1.85156 -0.3986,0.54634 -1.00311,1.17707 -1.81445,1.89258 l 1.15039,2.60742 19.74219,-9.62304 -1.15039,-2.60743 c -0.80839,0.16999 -1.51509,0.2583 -2.1211,0.26563 -0.61762,-0.019 -1.15352,-0.12649 -1.60546,-0.32227 -0.42688,-0.20799 -0.82601,-0.52404 -1.19727,-0.95117 -0.37126,-0.42713 -0.75545,-1.02332 -1.1543,-1.78906 -0.39884,-0.76574 -0.80216,-1.60937 -1.20898,-2.53125 l -6.99219,-15.84375 16.99805,-8.28516 6.99219,15.84375 c 0.98799,2.23885 1.55706,3.76876 1.70703,4.5918 0.13834,0.7967 0.0819,1.49679 -0.16993,2.09961 -0.25183,0.60282 -1.01914,1.45674 -2.29882,2.56055 l 1.15039,2.60742 19.63086,-9.56836 -1.15039,-2.60742 c -1.4798,0.30521 -2.58245,0.33028 -3.30469,0.0742 -0.72224,-0.25606 -1.33304,-0.71132 -1.83399,-1.36328 -0.48749,-0.69053 -1.17921,-2.04805 -2.07422,-4.07618 l -15.01171,-34.01758 c -0.62767,-1.42232 -1.06629,-2.488 -1.31836,-3.19726 -0.227,-0.72148 -0.36272,-1.40771 -0.40625,-2.05859 -0.0185,-0.6631 0.14776,-1.28821 0.49804,-1.875 0.33867,-0.61314 0.98955,-1.34745 1.95313,-2.20118 z m -215.2207,11.86719 -0.90626,2.71289 c 0.89916,0.63937 1.56373,1.23878 1.99219,1.79687 0.4637,0.54032 0.73297,1.13129 0.81055,1.7754 0.10365,0.65371 0.0358,1.43022 -0.20508,2.32617 -0.21481,0.90556 -0.53837,2.00139 -0.96875,3.28906 l -11.83984,35.42383 c -0.43954,1.31507 -0.84361,2.39823 -1.21485,3.24609 -0.36208,0.82047 -0.78263,1.46403 -1.26172,1.9336 -0.44385,0.45178 -1.00794,0.73629 -1.6914,0.85351 -0.64824,0.0994 -1.50041,0.10915 -2.55664,0.0273 l -0.90625,2.7129 20.53125,7.57226 0.90625,-2.71289 c -1.27968,-0.90281 -2.09847,-1.69735 -2.45508,-2.38281 -0.35661,-0.68547 -0.48869,-1.4721 -0.39648,-2.36133 0.0922,-0.88923 0.48314,-2.36122 1.16992,-4.41602 l 4.42187,-13.23437 2.26758,0.83789 c 1.43395,0.52886 2.43592,1.08138 3.00391,1.66016 0.59405,0.58839 1.07091,1.44149 1.42968,2.55859 0.35877,1.1171 0.64475,2.88595 0.86133,5.30469 l 0.70313,8.15234 c 0.45643,5.03071 1.07391,8.92043 1.85351,11.66992 l 15.05664,5.55274 0.90625,-2.71289 c -1.39452,-0.82207 -2.43228,-2.05077 -3.11523,-3.6875 -0.64772,-1.65452 -1.10351,-3.92917 -1.36524,-6.82618 l -0.5957,-6.49804 c -0.26592,-2.62159 -0.79569,-4.89514 -1.58789,-6.81836 -0.75697,-1.94101 -1.95355,-3.7047 -3.58984,-5.29297 l 0.13867,-0.41211 c 2.93047,-0.18095 5.36153,-0.62165 7.29492,-1.32422 1.96862,-0.72035 3.71671,-1.87592 5.24414,-3.4668 1.55351,-1.58126 2.7784,-3.71545 3.67578,-6.40039 0.68678,-2.05479 1.02622,-3.94531 1.01758,-5.67187 0.0266,-1.74434 -0.23702,-3.36448 -0.79101,-4.86133 -0.54484,-1.52425 -1.36746,-2.92036 -2.4668,-4.1875 -1.30511,-1.52768 -2.96498,-2.91003 -4.98242,-4.14648 -1.98222,-1.25424 -4.51142,-2.44739 -7.58789,-3.58203 z m 14.67382,10.90625 c 0.72226,0.20483 2.20509,0.71993 4.44727,1.54687 3.28505,1.21158 5.45017,3.05674 6.49609,5.53516 1.04592,2.47842 0.94653,5.58061 -0.29883,9.30664 -0.56773,1.69863 -1.24613,3.20245 -2.03515,4.51172 -0.76296,1.31889 -1.72723,2.36436 -2.89258,3.13477 -1.13012,0.75262 -2.47406,1.18047 -4.03125,1.2832 -1.54803,0.0753 -3.36543,-0.27176 -5.45117,-1.04102 l -3.8711,-1.42773 z m 136.42188,4.57812 c -1.2982,0.003 -2.50939,0.0462 -3.63281,0.12696 -2.25176,0.13294 -4.58765,0.42866 -7.00782,0.88867 -4.13332,0.78564 -7.66631,2.12055 -10.59961,4.00586 -2.91101,1.85156 -4.98444,4.16502 -6.2207,6.9375 -1.23625,2.77248 -1.55351,5.91534 -0.94922,9.42969 0.36847,2.14289 1.02721,4.00934 1.97461,5.59961 0.9746,1.5851 2.18577,2.9929 3.63281,4.22265 1.46933,1.19601 3.16254,2.23108 5.08204,3.10547 1.91949,0.8744 4.03696,1.66776 6.3496,2.37891 2.70055,0.84396 4.84533,1.7191 6.4336,2.62695 1.58827,0.90785 2.80677,1.95887 3.6582,3.1543 0.84652,1.16686 1.42196,2.63674 1.72656,4.4082 0.32917,1.91432 0.21009,3.58976 -0.35742,5.02539 -0.54523,1.40189 -1.40808,2.50985 -2.58789,3.32422 -1.17981,0.81437 -2.5714,1.37278 -4.17578,1.67773 -3.0728,0.58406 -5.55403,0.20183 -7.44336,-1.15039 -1.86705,-1.38596 -3.43281,-3.71548 -4.69727,-6.98633 l -5.58789,1.0625 2.26954,13.19922 c 2.74579,0.12722 5.64224,0.0648 8.6875,-0.18945 3.07736,-0.23086 6.00171,-0.60951 8.77539,-1.13672 3.88858,-0.73912 7.19757,-2.07688 9.92578,-4.01172 2.72329,-1.96341 4.63826,-4.37805 5.74609,-7.24414 1.10292,-2.89466 1.35234,-6.09893 0.74805,-9.61328 -0.47164,-2.74291 -1.34671,-5.05605 -2.625,-6.9375 -1.25601,-1.91518 -2.99813,-3.55963 -5.22852,-4.93555 -2.2081,-1.40965 -5.14163,-2.71144 -8.80078,-3.90429 -3.00195,-0.96371 -5.32124,-1.87911 -6.95898,-2.74805 -1.64266,-0.89751 -2.88111,-1.88761 -3.71289,-2.96875 -0.8095,-1.11488 -1.35568,-2.50103 -1.64063,-4.1582 -0.27512,-1.60003 -0.15604,-3.02475 0.35938,-4.27344 0.51049,-1.27726 1.32965,-2.31706 2.45507,-3.12109 1.12543,-0.80403 2.46173,-1.35383 4.01172,-1.64844 1.82193,-0.3463 3.38488,-0.31913 4.68946,0.082 1.30457,0.40116 2.46682,1.19959 3.48632,2.39258 1.04179,1.15925 2.01514,2.81758 2.91993,4.97656 l 5.58789,-1.0625 -2.13672,-12.42773 c -1.47299,-0.0741 -2.85805,-0.11076 -4.15625,-0.10743 z m -94.1875,3.83985 -0.18164,2.86719 c 1.02918,0.36338 1.82007,0.75453 2.375,1.17187 0.58434,0.39031 0.99569,0.88557 1.23437,1.48438 0.26626,0.60074 0.39863,1.36592 0.39453,2.29687 0.0235,0.93289 -0.009,2.07977 -0.0957,3.44141 l -2.39453,37.45898 c -0.0889,1.3906 -0.20375,2.5475 -0.3457,3.46875 -0.14011,0.89228 -0.38245,1.63169 -0.72461,2.21875 -0.31274,0.56003 -0.78333,0.99188 -1.41211,1.29688 -0.59936,0.27796 -1.41839,0.52616 -2.45703,0.74414 l -0.18164,2.86914 21.71093,1.52539 0.1836,-2.86719 c -0.7866,-0.25902 -1.44767,-0.53838 -1.98243,-0.83789 -0.5329,-0.32849 -0.95298,-0.69191 -1.25976,-1.0918 -0.27921,-0.39795 -0.48303,-0.87932 -0.61328,-1.4414 -0.13025,-0.56208 -0.19571,-1.27934 -0.19531,-2.15235 3.9e-4,-0.873 0.0329,-1.81609 0.0976,-2.83008 l 1.10352,-17.25195 0.82617,0.0586 c 0.99256,0.0698 1.7541,0.28316 2.28516,0.64062 0.56047,0.33042 1.09457,0.86163 1.60156,1.5957 0.53456,0.73602 1.14746,1.75466 1.83984,3.05469 l 5.67383,10.70117 c 1.28559,2.41849 2.13371,4.07839 2.54688,4.98047 0.41316,0.90209 0.66152,1.58926 0.74218,2.06055 0.11009,0.44426 0.14876,0.89779 0.11914,1.36133 -0.0352,0.55044 -0.22896,0.98811 -0.58203,1.3125 -0.35122,0.29541 -1.00059,0.48161 -1.94726,0.56054 l -0.18164,2.86914 22.41406,1.57618 0.18164,-2.82618 c -0.86561,-0.32278 -1.5667,-0.64807 -2.09961,-0.97656 -0.50349,-0.35552 -1.011,-0.84274 -1.52539,-1.46094 -0.5144,-0.61819 -1.1114,-1.45906 -1.79102,-2.52539 -0.6502,-1.09336 -1.45768,-2.54746 -2.42187,-4.36132 l -12.94531,-24.30665 13.33984,-13.73046 c 1.60177,-1.66253 2.91512,-2.90805 3.9375,-3.73828 1.02423,-0.85921 1.92107,-1.46512 2.69141,-1.81836 0.77033,-0.35325 1.68543,-0.59549 2.74609,-0.72461 l 0.18945,-2.95508 -21.13476,-1.48633 -0.18164,2.86914 c 1.1837,0.11234 2.07281,0.47951 2.66992,1.10352 0.62468,0.62595 0.90464,1.44695 0.83984,2.46093 -0.0611,0.95604 -0.31473,1.91323 -0.76367,2.8711 -0.41952,0.93083 -1.18829,2.11408 -2.30469,3.54883 -1.08697,1.40771 -2.85051,3.42269 -5.28906,6.04492 -2.40913,2.59519 -4.03707,4.24048 -4.88477,4.9375 -0.82012,0.69895 -1.61206,1.16693 -2.375,1.40429 -0.76293,0.23737 -1.7786,0.31185 -3.04687,0.22266 l -0.86719,-0.0606 0.98828,-15.4707 c 0.10553,-1.65134 0.23827,-2.88016 0.40039,-3.68359 0.16213,-0.80343 0.38456,-1.45691 0.66602,-1.96094 0.30903,-0.50209 0.73724,-0.92194 1.28516,-1.26172 0.57548,-0.33784 1.45251,-0.62603 2.63086,-0.86328 l 0.18359,-2.86719 z"
           transform="matrix(0.29918449,0,0,0.29918449,1533.271,-643.71581)"
           id="text852"
           inkscape:connector-curvature="0" />
        <path
           style="font-style:normal;font-variant:normal;font-weight:bold;font-stretch:normal;font-size:28.98162842px;line-height:1.25;font-family:Cambria;-inkscape-font-specification:'Cambria, Bold';font-variant-ligatures:normal;font-variant-caps:normal;font-variant-numeric:normal;font-feature-settings:normal;text-align:center;letter-spacing:0px;word-spacing:0px;writing-mode:lr-tb;text-anchor:middle;fill:#ffffff;fill-opacity:1;stroke:none;stroke-width:1.04143417"
           d="m 379.88281,125.83398 -25.85742,1.72461 0.25195,2.91797 c 1.27327,0.21138 2.27142,0.48523 2.99414,0.82227 0.75301,0.30538 1.31982,0.74118 1.69922,1.30859 0.41224,0.56522 0.6925,1.31733 0.83985,2.25586 0.18018,0.93634 0.32926,2.09751 0.44922,3.48242 l 3.29687,38.05469 c 0.12251,1.41438 0.17504,2.59738 0.1582,3.54688 -0.0194,0.92002 -0.18264,1.70085 -0.49023,2.34375 -0.27731,0.61124 -0.76333,1.11772 -1.45508,1.51953 -0.65892,0.39961 -1.58209,0.78831 -2.77148,1.16406 l 0.25195,2.91601 46.93945,-3.13281 -0.46289,-17.92773 -6.74804,0.44922 c -0.22593,1.58581 -0.57283,3.29959 -1.04102,5.13867 -0.4379,1.80742 -1.03623,3.29791 -1.79297,4.47461 -0.72645,1.14504 -1.64084,2.02181 -2.74414,2.6289 -1.1033,0.6071 -2.60726,0.97445 -4.51172,1.10157 l -9.55469,0.63672 -3.8125,-44.02149 c -0.1225,-1.41438 -0.17563,-2.58193 -0.15625,-3.50195 0.0497,-0.95169 0.23087,-1.73423 0.54102,-2.34766 0.34298,-0.61562 0.84439,-1.10836 1.50586,-1.47851 0.65892,-0.39962 1.5661,-0.7866 2.72266,-1.16016 z m 52.3086,0.25782 -0.81641,2.83008 c 1.12947,0.5701 1.9764,1.11974 2.53906,1.64843 0.60279,0.50759 0.98051,1.08397 1.13477,1.73047 0.18615,0.65399 0.1801,1.44727 -0.0195,2.37695 -0.16775,0.93717 -0.44514,2.07643 -0.83203,3.41993 l -10.64454,36.96093 c -0.39512,1.37208 -0.77177,2.50421 -1.13085,3.39649 -0.35086,0.86369 -0.7869,1.55426 -1.31055,2.07226 -0.48353,0.4969 -1.12544,0.83523 -1.92578,1.01368 -0.76023,0.15734 -1.77294,0.24092 -3.03516,0.25 l -0.81445,2.82812 25.11328,5.89258 0.81445,-2.83008 c -0.86716,-0.41703 -1.58278,-0.82945 -2.14648,-1.23633 -0.55547,-0.43546 -0.97044,-0.88433 -1.2461,-1.3457 -0.24377,-0.45389 -0.38303,-0.9745 -0.41797,-1.5625 -0.0349,-0.588 0.0395,-1.3189 0.22266,-2.19141 0.18317,-0.87251 0.41892,-1.80812 0.70703,-2.80859 l 4.90039,-17.02344 0.95703,0.22461 c 1.14802,0.2693 1.99574,0.63752 2.54297,1.10156 0.58736,0.44294 1.1008,1.08037 1.54102,1.91602 0.47211,0.84313 0.97864,1.98522 1.51758,3.42383 l 4.40429,11.83593 c 0.99971,2.67579 1.6482,4.50552 1.94336,5.49024 0.29517,0.98472 0.4397,1.7217 0.43555,2.20898 0.036,0.46618 -0.0128,0.92741 -0.14453,1.38477 -0.1564,0.54311 -0.47363,0.9401 -0.95508,1.19336 -0.47322,0.22467 -1.27304,0.28133 -2.39844,0.16992 l -0.81445,2.83008 25.5918,6.00391 -0.16797,0.21289 17.25586,10.93554 1.875,-2.38672 c -2.66953,-1.9444 -3.07491,-4.09954 -1.21875,-6.46289 0.79549,-1.01286 1.66413,-1.88832 2.60742,-2.62695 0.96222,-0.76274 2.01166,-1.50681 3.14648,-2.23242 l 4.03125,-2.5918 17.25782,10.93555 -1.69336,4.23633 c -0.66745,1.67188 -1.26575,3.02659 -1.79688,4.0625 -0.53113,1.03591 -1.09058,1.92819 -1.67773,2.67578 -0.7955,1.01286 -1.74821,1.5831 -2.85742,1.71093 -1.10922,0.12784 -2.42085,-0.18072 -3.93555,-0.92382 l -1.875,2.38672 22.30859,14.13671 1.875,-2.38671 c -0.9881,-0.95119 -1.62533,-1.86057 -1.91211,-2.72852 -0.26783,-0.89207 -0.30995,-1.84007 -0.12695,-2.84375 0.20194,-1.0278 0.71715,-2.63407 1.54492,-4.81836 l 18.48242,-48.96484 -10.79101,-6.83789 -48.41797,29.50976 c -2.0453,1.26832 -3.73674,2.16378 -5.07617,2.6875 -1.33943,0.52372 -2.59452,0.81273 -3.76563,0.86524 -1.1711,0.0525 -2.29257,-0.18937 -3.36523,-0.72461 l -1.14453,1.45507 0.57422,-1.99023 c -0.94637,-0.49664 -1.69844,-0.96298 -2.25391,-1.39844 -0.51535,-0.45656 -1.00927,-1.04431 -1.48242,-1.76562 -0.47315,-0.72131 -0.99546,-1.68427 -1.56836,-2.88672 -0.53278,-1.22355 -1.17405,-2.83887 -1.92383,-4.8457 l -10.07617,-26.89844 18.49805,-11.03906 c 2.22415,-1.33974 4.02322,-2.32295 5.39453,-2.94727 1.37953,-0.6529 2.55695,-1.07717 3.5332,-1.27539 0.97625,-0.19822 2.09973,-0.25604 3.36914,-0.17187 l 0.83789,-2.91602 -24.44141,-5.73438 -0.8164,2.83008 c 1.363,0.35025 2.32962,0.89883 2.89844,1.64258 0.6007,0.75123 0.75685,1.62648 0.46875,2.62695 -0.27165,0.94331 -0.76977,1.84768 -1.4961,2.71485 -0.6862,0.84606 -1.83346,1.87434 -3.4414,3.08398 -1.56783,1.18854 -4.05578,2.84776 -7.46094,4.97852 -3.36504,2.10965 -5.6151,3.4288 -6.75391,3.95508 -1.10692,0.53375 -2.13284,0.8419 -3.07617,0.92578 -0.94333,0.0839 -2.14833,-0.0465 -3.61523,-0.39063 l -1.00391,-0.23437 4.39453,-15.26563 c 0.46921,-1.62934 0.88414,-2.82915 1.24219,-3.59961 0.35804,-0.77046 0.75428,-1.37896 1.18945,-1.82617 0.46706,-0.43972 1.05663,-0.77443 1.76953,-1.00391 0.7448,-0.22199 1.83183,-0.33372 3.26172,-0.33398 l 0.81445,-2.83008 z m -103.33985,7.04882 -24.61718,7.25586 1.02734,2.7793 c 1.29155,-0.0693 2.32847,-0.0321 3.10937,0.11133 0.81216,0.13422 1.48326,0.44982 2.01368,0.94727 0.55129,0.46015 1.01827,1.11685 1.40234,1.96874 0.41533,0.84268 0.87125,1.93758 1.36914,3.28516 l 13.42773,36.3418 c 0.4979,1.34758 0.86732,2.48413 1.10547,3.41015 0.22778,0.89796 0.27836,1.69386 0.15235,2.38477 -0.10513,0.65362 -0.43874,1.24949 -1.00196,1.78906 -0.54232,0.50229 -1.33974,1.06394 -2.39257,1.68555 l 1.02539,2.7793 24.61718,-7.25391 -1.02734,-2.7793 c -0.9791,0.0706 -1.82835,0.0704 -2.54688,0.002 -0.72889,-0.0965 -1.34747,-0.27097 -1.85742,-0.52539 -0.47869,-0.26364 -0.91029,-0.63514 -1.29492,-1.11329 -0.38463,-0.47814 -0.76497,-1.12931 -1.13867,-1.95312 -0.3737,-0.82382 -0.74242,-1.72637 -1.10547,-2.70898 l -13.41211,-36.30079 c -0.58088,-1.57218 -0.95899,-2.78375 -1.13476,-3.63476 -0.17578,-0.85102 -0.2001,-1.57441 -0.0742,-2.17188 0.12587,-0.59747 0.42314,-1.15212 0.89257,-1.66406 0.49033,-0.54922 1.31884,-1.16893 2.48633,-1.85547 z m -45.9707,13.96094 -17.74024,10.50977 1.80274,2.4414 c 1.52723,-0.7629 2.86976,-1.02611 4.0293,-0.79101 1.18697,0.21884 2.22677,0.93357 3.11914,2.14258 0.74667,1.01161 1.33291,2.04624 1.75976,3.10547 0.4543,1.04297 0.85963,2.20423 1.21289,3.48437 l 9.36328,32.48633 -27.76367,-21.74609 c -1.77798,-1.3936 -3.03056,-2.42446 -3.75976,-3.0918 -0.74742,-0.69202 -1.42246,-1.44359 -2.02344,-2.25781 -0.76489,-1.03629 -1.01326,-2.04172 -0.74609,-3.01563 0.26716,-0.9739 1.05927,-1.95779 2.37695,-2.95117 l -1.80274,-2.44336 -22.76171,13.48437 1.80273,2.44336 c 1.34388,-0.47697 2.52601,-0.66386 3.54883,-0.56054 1.00461,0.0786 2.00561,0.39179 3,0.9375 0.97618,0.52103 2.44839,1.52666 4.41797,3.01953 l 44.17968,33.40429 9.50782,-5.63281 -13.24024,-51.51953 c -0.6247,-2.39597 -0.95707,-4.18495 -1,-5.36523 -0.0337,-1.22122 0.14168,-2.26407 0.52735,-3.13086 0.39489,-0.90773 1.05869,-1.74593 1.99218,-2.51172 z m 251.49219,28.54102 -9.5293,24.46289 -14.54883,-9.21875 z"
           transform="matrix(0.29918449,0,0,0.29918449,1533.271,-643.71581)"
           id="text856"
           inkscape:connector-curvature="0" />
        <path
           sodipodi:nodetypes="cccccc"
           inkscape:connector-curvature="0"
           id="path860"
           d="m 1676.2835,-539.95103 h 78.9787 l -11.0141,13.01426 10.9607,13.03094 h -78.9253 z"
           style="fill:#ffffff;stroke:#ffffff;stroke-width:0.29477927px;stroke-linecap:butt;stroke-linejoin:miter;stroke-opacity:1" />
        <circle
           style="opacity:1;fill:#ffffff;fill-opacity:1;stroke:#ffffff;stroke-width:0.59132588;stroke-miterlimit:4;stroke-dasharray:none;stroke-opacity:1"
           id="circle862"
           cx="-523.60388"
           cy="-1651.6884"
           r="59.132587"
           transform="rotate(90)" />
        <path
           style="fill:#ffffff;stroke:#ffffff;stroke-width:0.29477927px;stroke-linecap:butt;stroke-linejoin:miter;stroke-opacity:1"
           d="m 1629.0196,-539.95085 -78.9789,-1e-5 11.0142,13.01426 -10.9608,13.03094 h 78.9255 z"
           id="path866"
           inkscape:connector-curvature="0"
           sodipodi:nodetypes="cccccc" />
        <path
           style="fill:#1a1a1a;stroke-width:0.28562975"
           d="m 1720.3624,-522.33436 c -0.8716,-1.19476 -1.4957,-3.40493 -1.3521,-4.78834 0.1613,-1.55369 1.4637,-3.86258 2.7074,-4.79983 2.1614,-1.62878 5.0172,-1.75317 7.4559,-0.32474 3.3974,1.98993 4.3808,5.819 2.3689,9.22406 -1.4066,2.38073 -3.9857,3.66587 -6.6359,3.30669 -1.3882,-0.18813 -3.7746,-1.5629 -4.5442,-2.61785 z m 4.9596,-1.35912 c 0.6192,-1.05722 1.2009,-1.18336 2.3509,-0.5098 0.9061,0.53069 0.953,0.52046 1.4418,-0.31406 0.4888,-0.83452 0.4748,-0.8805 -0.4313,-1.41119 -1.1804,-0.6914 -1.3244,-1.2427 -0.633,-2.42312 0.5307,-0.90604 0.5205,-0.95302 -0.3141,-1.44182 -0.8345,-0.4888 -0.8805,-0.47475 -1.4112,0.4313 -0.6735,1.14997 -1.2426,1.32446 -2.2998,0.70523 -0.7653,-0.44821 -0.8433,-0.42536 -1.3186,0.38623 -0.4754,0.81158 -0.4572,0.8908 0.308,1.33901 1.0285,0.60239 1.1844,1.19924 0.582,2.2277 -0.4482,0.76521 -0.4253,0.84322 0.3863,1.31859 0.8115,0.47537 0.8908,0.45714 1.339,-0.30807 z"
           id="path868"
           inkscape:connector-curvature="0" />
        <path
           inkscape:connector-curvature="0"
           id="path870"
           d="m 1572.724,-522.33436 c -0.8716,-1.19476 -1.4957,-3.40493 -1.3521,-4.78834 0.1613,-1.55369 1.4636,-3.86258 2.7074,-4.79983 2.1614,-1.62878 5.0172,-1.75317 7.4559,-0.32474 3.3974,1.98993 4.3807,5.819 2.3689,9.22406 -1.4066,2.38073 -3.9857,3.66587 -6.636,3.30669 -1.3882,-0.18813 -3.7745,-1.5629 -4.5441,-2.61785 z m 4.9595,-1.35912 c 0.6193,-1.05722 1.201,-1.18336 2.351,-0.5098 0.906,0.53069 0.953,0.52046 1.4418,-0.31406 0.4888,-0.83452 0.4748,-0.8805 -0.4313,-1.41119 -1.1804,-0.6914 -1.3244,-1.2427 -0.633,-2.42312 0.5307,-0.90604 0.5204,-0.95302 -0.3141,-1.44182 -0.8345,-0.4888 -0.8805,-0.47475 -1.4112,0.4313 -0.6736,1.14997 -1.2427,1.32446 -2.2999,0.70523 -0.7652,-0.44821 -0.8432,-0.42536 -1.3186,0.38623 -0.4754,0.81158 -0.4571,0.8908 0.3081,1.33901 1.0284,0.60239 1.1844,1.19924 0.582,2.2277 -0.4482,0.76521 -0.4254,0.84322 0.3862,1.31859 0.8116,0.47537 0.8908,0.45714 1.339,-0.30807 z"
           style="fill:#1a1a1a;stroke-width:0.28562975" />
        <path
           inkscape:connector-curvature="0"
           id="path872"
           d="m 1617.387,-488.08963 c -1.5931,-1.59645 -2.8966,-2.99841 -2.8966,-3.1155 0,-0.11709 1.2413,-1.45695 2.7585,-2.97752 2.4733,-2.47878 2.7335,-2.81138 2.5167,-3.21656 -0.6064,-1.13307 -0.3797,-1.51136 2.8707,-4.78971 l 3.1126,-3.13934 4.3276,4.32356 4.3276,4.32356 -3.0086,3.01877 c -1.6548,1.66033 -3.2477,3.07977 -3.5397,3.15433 -0.292,0.0745 -0.8322,0.0219 -1.2003,-0.11708 -0.665,-0.25101 -0.6877,-0.23425 -3.5206,2.59273 l -2.8512,2.84537 z m 26.7493,-6.04311 c -1.9553,-0.48108 -4.1706,-1.51634 -5.8783,-2.74702 -1.6464,-1.18647 -11.6197,-11.21786 -12.5965,-12.66988 -3.8186,-5.67602 -3.8143,-13.24161 0.011,-18.90876 0.3875,-0.57418 3.4456,-3.80434 6.7958,-7.1781 l 6.0912,-6.13413 -0.5096,-0.75937 c -1.079,-1.60751 -1.29,-3.2718 -0.6535,-5.15188 0.3019,-0.89131 0.9217,-1.64187 3.5718,-4.3247 2.7503,-2.78425 3.29,-3.23581 3.7927,-3.17319 0.4422,0.0551 5.3653,4.8478 20.063,19.53181 16.1261,16.111 19.477,19.55957 19.477,20.04457 0,0.4656 -0.6629,1.23597 -3.2311,3.75492 -2.6459,2.59516 -3.4259,3.2355 -4.3064,3.53553 -1.8734,0.63832 -3.5406,0.42713 -5.1487,-0.65219 l -0.7594,-0.50968 -6.1341,6.09123 c -3.3738,3.35017 -6.6039,6.40829 -7.1781,6.79583 -3.8003,2.56498 -9.0513,3.52654 -13.4065,2.45501 z m -0.5257,-8.3505 c 0.2577,-0.13788 0.4233,-0.45718 0.4233,-0.81586 0,-0.47844 -1.0406,-1.62998 -5.5305,-6.11985 -4.4899,-4.48988 -5.6414,-5.53052 -6.1199,-5.53052 -0.656,0 -1.1423,0.65328 -0.9462,1.27114 0.1624,0.51197 11.1202,11.42163 11.472,11.42163 0.1529,0 0.4685,-0.10194 0.7013,-0.22654 z m 7.1587,-1.86485 c 0.2675,-0.18737 0.4864,-0.50695 0.4864,-0.71018 0,-0.48896 -16.6291,-17.11294 -17.1182,-17.11294 -0.564,0 -1.1307,0.96713 -0.857,1.4625 0.3175,0.57468 16.5243,16.70129 16.7843,16.70129 0.12,0 0.437,-0.1533 0.7045,-0.34067 z m 7.4414,-2.41846 c 0.055,-0.57104 -1.0052,-1.69884 -10.8515,-11.53823 -9.7979,-9.7911 -10.9757,-10.8979 -11.527,-10.83262 -0.4147,0.0491 -0.678,0.24663 -0.8108,0.60842 -0.1828,0.49764 0.5945,1.32699 10.9298,11.66226 10.3353,10.3353 11.1646,11.11253 11.6622,10.9298 0.3732,-0.13704 0.5544,-0.3887 0.5973,-0.82963 z m 7.0484,-1.28659 c 0.1486,-0.17897 0.2131,-0.54827 0.1435,-0.82065 -0.1875,-0.7331 -27.0746,-27.52207 -27.6229,-27.52207 -0.2433,0 -0.5605,0.11821 -0.7049,0.26261 -0.7913,0.79127 -0.6182,0.98537 13.2606,14.87337 14.0688,14.07802 14.1448,14.14531 14.9237,13.20674 z m 12.3099,-18.77059 -2.6765,-2.68294 7.8225,-7.81122 c 4.3024,-4.29616 8.0998,-7.91428 8.4386,-8.04025 2.2826,-0.84859 4.8587,0.65537 5.2997,3.09402 0.3124,1.7278 0.1242,1.96485 -8.1798,10.29978 -4.2869,4.30296 -7.847,7.82356 -7.9112,7.82356 -0.064,0 -1.3212,-1.20732 -2.7933,-2.68295 z m -21.7177,-21.71778 -2.731,-2.73765 7.7666,-7.76999 c 8.3323,-8.33594 8.7097,-8.63692 10.438,-8.3241 2.534,0.4587 4.0367,3.14482 3.0403,5.43475 -0.1699,0.39072 -3.7512,4.13884 -8.0446,8.41942 l -7.7382,7.71522 z"
           style="fill:#1a1a1a;stroke-width:0.21884079" />
      </g>
    </g>
  </g>
</svg>
